<?xml version="1.0" standalone="no"?>
<!DOCTYPE svg PUBLIC "-//W3C//DTD SVG 1.1//EN" "http://www.w3.org/Graphics/SVG/1.1/DTD/svg11.dtd" >
<svg xmlns="http://www.w3.org/2000/svg">
<metadata>
This is a custom SVG webfont generated by Font Squirrel.
Copyright   : Copyright c 2008 by Mrio Feliciano All rights reserved
Designer    : Mrio Feliciano
Foundry     : Mrio Feliciano  Feliciano Type Foundry
Foundry URL : wwwfelicianotypefoundrycom
</metadata>
<defs>
<font id="FlamaUltralight" horiz-adv-x="1335" >
<font-face units-per-em="2048" ascent="1638" descent="-410" />
<missing-glyph horiz-adv-x="475" />
<glyph unicode=" "  horiz-adv-x="475" />
<glyph unicode="&#x09;" horiz-adv-x="475" />
<glyph unicode="&#xa0;" horiz-adv-x="475" />
<glyph unicode="!" horiz-adv-x="552" d="M240 0v178h73v-178h-73zM246 997v463h65v-463l-8 -618h-49z" />
<glyph unicode="&#x22;" horiz-adv-x="653" d="M158 1296v172h69v-172l-12 -194h-43zM426 1296v172h68v-172l-13 -194h-43z" />
<glyph unicode="#" horiz-adv-x="1138" d="M51 408l10 47h207l97 546h-218l11 46h215l69 385h45l-69 -385h428l69 385h46l-66 -385h205l-8 -46h-207l-97 -546h213l-8 -47h-211l-73 -420h-50l72 420h-424l-69 -420h-52l74 420h-209zM317 455h422l101 546h-428z" />
<glyph unicode="$" horiz-adv-x="1060" d="M111 420l57 16q39 -113 134 -174t237 -61q145 0 236 70.5t91 185.5q0 184 -204 252l-123 35.5t-129 37.5q-129 39 -181.5 106.5t-52.5 170.5q0 121 92 204t238 87v200h53v-200q248 -12 344 -201l-53 -25q-96 170 -320 170q-119 0 -203.5 -61.5t-84.5 -167.5 q0 -86 40 -139.5t169 -89.5l245 -74q233 -72 234 -297q0 -129 -99.5 -219t-271.5 -99v-217h-53v217q-156 6 -258 78t-137 195z" />
<glyph unicode="%" horiz-adv-x="1513" d="M125 987v260q0 117 68.5 176.5t177.5 59.5q111 0 180.5 -58.5t69.5 -177.5v-274q0 -106 -73 -165.5t-181 -59.5q-117 0 -179.5 64t-62.5 175zM174 971q0 -82 51 -131t146 -49q92 0 146 52t54 128v289q0 76 -54 129t-146 53t-144.5 -51.5t-52.5 -130.5v-289zM289 0 l905 1468h53l-901 -1468h-57zM893 205v258q0 117 69.5 183.5t176.5 66.5q111 0 180.5 -59.5t69.5 -178.5v-272q0 -106 -73 -166t-181 -60q-111 0 -176.5 58.5t-65.5 169.5zM942 201q0 -82 51 -131.5t146 -49.5q92 0 147 52.5t55 128.5v286q0 76 -55 130.5t-147 54.5 t-144.5 -52.5t-52.5 -132.5v-286z" />
<glyph unicode="&#x26;" horiz-adv-x="1495" d="M160 377q0 133 91 253t306 181q-205 205 -205 373q0 49 16.5 96t55.5 97t116.5 81t186.5 31q158 0 243 -85t85 -204q0 -293 -396 -412l457 -493q86 127 148 317l53 -14q-41 -152 -160 -346l242 -252h-84l-203 209q-188 -236 -504 -236q-207 0 -327.5 119t-120.5 285z M227 389q0 -156 108.5 -258t276.5 -102q137 0 262 58t201 163l-481 522q-178 -45 -272.5 -151.5t-94.5 -231.5zM422 1184q0 -127 151 -295q37 -41 54 -62q182 59 272 144.5t90 226.5q0 117 -81 177.5t-185 60.5q-141 0 -221 -70.5t-80 -181.5z" />
<glyph unicode="'" horiz-adv-x="385" d="M158 1296v172h69v-172l-12 -194h-43z" />
<glyph unicode="(" horiz-adv-x="598" d="M203 565q0 535 262 940l41 -6q-125 -238 -186.5 -444.5t-61.5 -491.5q0 -516 252 -938l-45 -4q-133 184 -197.5 450.5t-64.5 493.5z" />
<glyph unicode=")" horiz-adv-x="598" d="M94 1499l41 6q262 -410 262 -940q0 -227 -64.5 -493.5t-197.5 -450.5l-41 4q246 418 246 938q0 287 -60.5 493.5t-185.5 442.5z" />
<glyph unicode="*" horiz-adv-x="821" d="M90 1270l27 41l268 -164v313h51v-313l269 164l26 -41l-258 -158l172 -238l-41 -30l-194 262l-189 -262l-43 30l168 238z" />
<glyph unicode="+" horiz-adv-x="1146" d="M92 627v45h459v458h49v-458h455v-45h-455v-461h-49v461h-459z" />
<glyph unicode="," horiz-adv-x="378" d="M152 -193l26 193h-24v178h73v-178l-37 -193h-38z" />
<glyph unicode="-" horiz-adv-x="718" d="M111 555v61h497v-61h-497z" />
<glyph unicode="." horiz-adv-x="378" d="M154 0v178h73v-178h-73z" />
<glyph unicode="/" horiz-adv-x="686" d="M45 -233l528 1720h50l-523 -1720h-55z" />
<glyph unicode="0" horiz-adv-x="1167" d="M131 375v708q0 188 132 297t325 109q199 0 323.5 -108.5t124.5 -297.5v-706q0 -186 -128 -295t-320 -109q-201 0 -329 107t-128 295zM197 379q0 -152 106.5 -252t284.5 -100t279.5 99t101.5 261v700q0 145 -103.5 247t-279.5 102t-282.5 -103.5t-106.5 -255.5v-698z" />
<glyph unicode="1" horiz-adv-x="993" d="M100 0v53h394v1346l-361 -78l-6 45l391 94h39v-1407h365v-53h-822z" />
<glyph unicode="2" horiz-adv-x="1017" d="M113 1110v53q0 158 106.5 242t284.5 84q188 0 286.5 -100.5t98.5 -264.5q0 -205 -93.5 -381t-285.5 -391l-277 -295v-2h703v-55h-795v41l340 369q166 186 252 347t86 353v10q0 141 -82 227.5t-243 86.5q-139 0 -230.5 -71t-91.5 -194v-59h-59z" />
<glyph unicode="3" horiz-adv-x="1069" d="M125 270v70h61v-55q0 -123 107.5 -189.5t249.5 -66.5q152 0 258 96t106 256q0 84 -29.5 149.5t-71.5 102.5t-95.5 61.5t-94.5 31.5t-75 7h-162v58h168q143 0 230 86t87 243q0 162 -93 238t-228 76q-141 0 -242.5 -65.5t-101.5 -209.5v-45h-60v57q0 141 110.5 228.5 t295.5 87.5q104 0 182 -34t118 -89t59.5 -113.5t19.5 -117.5q0 -307 -260 -365v-6q135 -31 224 -127t89 -238q0 -190 -120 -307t-314 -117q-201 0 -309.5 90t-108.5 207z" />
<glyph unicode="4" horiz-adv-x="1153" d="M90 434v53l635 973h74l-641 -971h592v408l63 37v-445h234v-55h-234v-434h-63v434h-660z" />
<glyph unicode="5" horiz-adv-x="1071" d="M125 270v70h61v-55q0 -123 102.5 -189.5t241.5 -66.5q70 0 131.5 18.5t120 60.5t92 125.5t33.5 202.5v29q0 186 -96 278.5t-252 92.5q-174 0 -328 -121l-65 8l47 739h684v-57h-635l-39 -635q172 121 359 121q166 0 278.5 -109.5t112.5 -306.5v-24q0 -238 -119 -358 t-319.5 -120t-305 90t-104.5 207z" />
<glyph unicode="6" horiz-adv-x="1095" d="M133 381v711q0 184 118 289.5t308 105.5q180 0 284.5 -86t104.5 -234v-41h-59v31q0 131 -90 204t-240 73q-168 0 -265 -97.5t-97 -242.5v-408q61 111 171.5 170t227.5 59q150 0 259.5 -93t109.5 -236v-240q0 -176 -116 -274.5t-306 -98.5q-188 0 -299 115t-111 293z M197 367q0 -137 96 -237.5t264 -100.5q162 0 253 86t91 217v223q0 156 -99.5 229.5t-232.5 73.5t-252.5 -94t-119.5 -238v-159z" />
<glyph unicode="7" horiz-adv-x="1015" d="M92 1403v57h842v-45q-221 -231 -384 -611t-165 -804h-70q0 401 173.5 813t369.5 590h-766z" />
<glyph unicode="8" horiz-adv-x="1083" d="M121 338v70q0 121 79 213t199 129q-121 29 -191.5 115.5t-70.5 189.5v69q0 172 120 267.5t286 95.5q170 0 286.5 -89t116.5 -257q1 -36 1 -54.5t-1 -19.5q0 -100 -71.5 -191.5t-196.5 -121.5q123 -31 204 -122t81 -222v-64q0 -174 -117 -273.5t-305 -99.5 q-186 0 -303 100.5t-117 264.5zM186 344q0 -141 104.5 -230t252.5 -89q156 0 254 88t98 241v56q0 152 -107.5 232.5t-244.5 80.5q-141 0 -249 -83t-108 -234v-62zM201 1073q0 -98 58 -170t134 -101.5t154 -29.5q125 0 229.5 85t104.5 218v74q0 135 -103.5 210t-242.5 75 q-129 0 -231.5 -81t-102.5 -214v-66z" />
<glyph unicode="9" horiz-adv-x="1118" d="M131 877v217q0 178 117 286.5t305 108.5t299 -113.5t111 -292.5v-714q0 -182 -118 -288t-308 -106q-180 0 -285 86t-105 234v41h60v-31q0 -131 90 -203.5t242 -72.5q166 0 263 97t97 243v413q-59 -125 -165.5 -180t-231.5 -55q-152 0 -261.5 93.5t-109.5 236.5zM195 907 q0 -156 99 -230.5t232 -74.5q131 0 252 94.5t121 237.5v162q0 137 -96 238.5t-264 101.5q-160 0 -252 -97.5t-92 -228.5v-203z" />
<glyph unicode=":" horiz-adv-x="378" d="M154 0v178h73v-178h-73zM154 786v179h73v-179h-73z" />
<glyph unicode=";" horiz-adv-x="378" d="M152 -193l26 193h-24v178h73v-178l-37 -193h-38zM154 786v179h73v-179h-73z" />
<glyph unicode="&#x3c;" horiz-adv-x="1159" d="M127 629v39l874 399l21 -41l-829 -379l817 -397l-21 -41z" />
<glyph unicode="=" horiz-adv-x="1159" d="M96 449v47h965v-47h-965zM96 817v45h965v-45h-965z" />
<glyph unicode="&#x3e;" horiz-adv-x="1159" d="M139 1026l19 41l874 -399v-39l-862 -420l-20 41l817 397z" />
<glyph unicode="?" horiz-adv-x="1048" d="M147 1112v39q0 166 109 251t276 85q172 0 273.5 -86t101.5 -250q0 -88 -36.5 -171t-74.5 -127t-108 -114q-49 -49 -75.5 -78.5t-53.5 -82t-33 -109.5v-92h-63v94q6 68 37.5 129.5t59.5 93t89 92.5q100 100 146.5 177t46.5 186q0 143 -85 214t-233 71q-76 0 -142.5 -22.5 t-119.5 -87t-53 -161.5v-51h-62zM457 0v178h73v-178h-73z" />
<glyph unicode="@" horiz-adv-x="1955" d="M139 502q0 399 260 653t666 254q336 0 561 -210t225 -517q0 -154 -56 -277.5t-146 -197.5t-190.5 -113t-198.5 -39h-48l43 236h-6q-80 -139 -184 -200.5t-209 -61.5q-135 0 -208 63.5t-73 175.5q0 39 7 72q0 4 30.5 178t30.5 176q33 182 149.5 272.5t260.5 90.5 q113 0 195.5 -63.5t90.5 -180.5h4l41 234h56l-168 -955q86 2 176 41t170 110.5t131 189.5t51 259q0 283 -218 478.5t-521 195.5q-383 0 -629 -243.5t-246 -616.5q0 -297 144.5 -485.5t382.5 -260.5q141 -41 301 -41q217 0 387 52l8 -39q-178 -57 -403 -58q-166 0 -318 47 q-252 82 -404 283q-145 190 -145 468v30zM637 270q0 -90 63.5 -140t186.5 -50t249 124t154 294l23 137q8 53 8 80q0 145 -78 219t-194 74q-131 0 -225.5 -76t-118.5 -219l-62 -361q-6 -55 -6 -82z" />
<glyph unicode="A" horiz-adv-x="1314" d="M84 0l547 1468h65l537 -1468h-68l-192 526h-633l-193 -526h-63zM358 582h596l-292 811h-3z" />
<glyph unicode="B" horiz-adv-x="1214" d="M174 0v1460h500q176 0 281.5 -91t105.5 -257q0 -133 -83 -235.5t-216 -120.5v-2q162 -18 251 -118.5t89 -240.5q0 -195 -126 -295t-304 -100h-498zM238 57h411q170 0 277.5 84t107.5 254q0 164 -111.5 246t-279.5 82h-405v-666zM238 778h378q156 0 268.5 81t112.5 239 q0 154 -97 230.5t-253 76.5h-409v-627z" />
<glyph unicode="C" horiz-adv-x="1269" d="M139 446v547q0 213 147.5 355.5t381.5 142.5q219 0 353 -115.5t134 -283.5v-97h-61v78q0 158 -113 257.5t-324 99.5q-205 0 -327.5 -126t-122.5 -319v-516q0 -201 124 -319.5t337 -118.5q209 0 317.5 99t108.5 259v43h61v-63q0 -174 -132 -285t-355 -111 q-238 0 -383.5 123t-145.5 350z" />
<glyph unicode="D" horiz-adv-x="1310" d="M174 0v1460h518q221 0 350 -116.5t129 -335.5v-539q0 -217 -131 -343t-348 -126h-518zM238 57h446q209 0 315.5 119t106.5 285v532q0 182 -106.5 296t-315.5 114h-446v-1346z" />
<glyph unicode="E" horiz-adv-x="1161" d="M174 0v1460h866v-57h-802v-615h645v-57h-645v-674h802v-57h-866z" />
<glyph unicode="F" horiz-adv-x="1097" d="M174 0v1460h862v-57h-798v-615h639v-57h-639v-731h-64z" />
<glyph unicode="G" d="M152 446v547q0 213 146 355.5t380 142.5q221 0 355 -115.5t134 -281.5v-97h-63v78q0 158 -111.5 256.5t-324.5 98.5q-205 0 -328 -126t-123 -319v-516q0 -201 125 -319.5t336 -118.5q213 0 324.5 97t111.5 255v285h-424v59h488v-358q0 -176 -132.5 -286t-368 -110 t-380.5 123t-145 350z" />
<glyph unicode="H" horiz-adv-x="1366" d="M174 0v1460h64v-669h886v669h66v-1460h-66v733h-886v-733h-64z" />
<glyph unicode="I" horiz-adv-x="411" d="M174 0v1460h64v-1460h-64z" />
<glyph unicode="J" horiz-adv-x="1155" d="M98 389v113h60v-90q0 -164 94 -273.5t305 -109.5q176 0 274.5 107.5t98.5 248.5v1075h63v-1038q0 -203 -111.5 -326t-342.5 -123q-201 0 -321 107.5t-120 308.5z" />
<glyph unicode="K" horiz-adv-x="1206" d="M174 0v1460h64v-846l821 846h80l-555 -571l579 -889h-76l-548 842l-301 -307v-535h-64z" />
<glyph unicode="L" horiz-adv-x="1116" d="M174 0v1460h64v-1403h798v-57h-862z" />
<glyph unicode="M" horiz-adv-x="1576" d="M174 0v1460h82l535 -882h2l524 882h86v-1460h-64v1356h-6l-518 -862h-53l-518 862h-8v-1356h-62z" />
<glyph unicode="N" horiz-adv-x="1347" d="M174 0v1460h74l864 -1341h4v1341h60v-1460h-64l-876 1372h-3v-1372h-59z" />
<glyph unicode="O" d="M139 446v529q0 236 145.5 376t383.5 140q236 0 381 -126t145 -353v-523q0 -236 -145.5 -376t-380.5 -140q-231 0 -380 123t-149 350zM207 469q0 -201 124 -319.5t337 -118.5q209 0 334.5 122.5t125.5 323.5v533q0 195 -125.5 307.5t-345.5 112.5q-207 0 -328.5 -129.5 t-121.5 -335.5v-496z" />
<glyph unicode="P" horiz-adv-x="1189" d="M174 0v1460h459q207 0 327.5 -118.5t120.5 -301.5q0 -199 -135 -315.5t-364 -116.5h-344v-608h-64zM238 664h317q219 0 339 95t120 281q0 158 -108.5 261.5t-278.5 103.5h-389v-741z" />
<glyph unicode="Q" d="M139 446v529q0 236 145.5 376t383.5 140q236 0 381 -126t145 -353v-523q0 -180 -88 -307t-242 -174l350 -186l-45 -55l-376 219q-59 -12 -125 -13q-231 0 -380 123t-149 350zM207 469q0 -201 124 -319.5t337 -118.5q209 0 334.5 122.5t125.5 323.5v533 q0 195 -125.5 307.5t-345.5 112.5q-207 0 -328.5 -129.5t-121.5 -335.5v-496z" />
<glyph unicode="R" horiz-adv-x="1228" d="M174 0v1460h461q213 0 338 -110.5t125 -300.5q0 -178 -107.5 -293t-314.5 -129l481 -627h-78l-477 625h-364v-625h-64zM238 680h356q434 0 434 369q0 172 -113.5 264t-320.5 92h-356v-725z" />
<glyph unicode="S" horiz-adv-x="1167" d="M92 311l62 19q47 -141 164.5 -220t289.5 -79q176 0 289 91t113 238q0 141 -63.5 213t-186.5 111l-303 96q-295 92 -295 355q0 154 123 254t307 100q324 0 448 -246l-53 -24q-119 213 -389 213q-150 0 -259.5 -76t-109.5 -213q0 -106 57.5 -182t209.5 -127l303 -95 q276 -82 276 -366q0 -178 -127 -289t-348 -111q-199 0 -332 90t-176 248z" />
<glyph unicode="T" horiz-adv-x="1214" d="M49 1403v57h1116v-57h-524v-1403h-63v1403h-529z" />
<glyph unicode="U" horiz-adv-x="1345" d="M162 451v1009h63v-983q0 -233 129 -339.5t322 -106.5q207 0 330 115q117 110 117 296q0 9 -1 19v999h60v-1007v-13q0 -212 -138 -338q-141 -129 -376 -129q-92 0 -177 26t-161 79t-122 149.5t-46 223.5z" />
<glyph unicode="V" horiz-adv-x="1167" d="M45 1460h68l467 -1392h4l477 1392h63l-512 -1468h-67z" />
<glyph unicode="W" horiz-adv-x="1732" d="M72 1460h67l342 -1380h2l351 1380h69l344 -1374h2l346 1374h64l-379 -1468h-68l-344 1374h-4l-346 -1374h-69z" />
<glyph unicode="X" horiz-adv-x="1095" d="M63 0l451 768l-401 692h75l367 -651l381 651h65l-411 -698l448 -762h-73l-416 713l-418 -713h-68z" />
<glyph unicode="Y" horiz-adv-x="1142" d="M82 1460h76l415 -768l416 768h72l-459 -833v-627h-63v627z" />
<glyph unicode="Z" horiz-adv-x="1064" d="M63 0v45l830 1362h-803v53h879v-49l-824 -1354h820v-57h-902z" />
<glyph unicode="[" horiz-adv-x="735" d="M315 -389v1970h351v-49h-289v-1872h289v-49h-351z" />
<glyph unicode="\" horiz-adv-x="686" d="M100 1487h52l526 -1720h-53z" />
<glyph unicode="]" horiz-adv-x="735" d="M70 -340h288v1872h-288v49h348v-1970h-348v49z" />
<glyph unicode="^" horiz-adv-x="909" d="M240 397l190 762h70l170 -762h-64l-141 680l-162 -680h-63z" />
<glyph unicode="_" horiz-adv-x="1024" d="M0 -170h1024v-55h-1024v55z" />
<glyph unicode="`" horiz-adv-x="565" d="M55 1470h78l215 -301h-57z" />
<glyph unicode="a" horiz-adv-x="997" d="M113 256q0 86 35.5 147.5t95 93t120 46t123.5 14.5h310v182q0 240 -289 240q-121 0 -208 -50t-87 -161v-33h-57v33q0 135 103 199.5t259 64.5q152 0 246 -64.5t94 -207.5v-490q0 -39 6 -150.5t6 -119.5h-59q-8 90 -8 190h-4q-94 -215 -363 -215q-135 0 -229 75t-94 206z M176 258q0 -111 83 -170t194 -59q156 0 250 90t94 241v144h-289q-332 0 -332 -246z" />
<glyph unicode="b" horiz-adv-x="1021" d="M162 0v1460h61v-663h6q45 117 142.5 176t203.5 59q154 0 245 -90t91 -233v-369q0 -186 -104.5 -276.5t-251.5 -90.5q-113 0 -209 64.5t-123 181.5h-4v-219h-57zM221 399q0 -164 97.5 -268t234.5 -104q119 0 207 77.5t88 219.5v387q0 115 -78 190.5t-217 75.5 q-127 0 -229.5 -109.5t-102.5 -281.5v-187z" />
<glyph unicode="c" horiz-adv-x="933" d="M113 375v252q0 188 98 296.5t274.5 108.5t267.5 -86t91 -219v-35h-60v47q0 88 -69.5 164t-225.5 76q-160 0 -237.5 -100.5t-77.5 -255.5v-248q0 -348 315 -348q156 0 225.5 75.5t69.5 163.5v47h60v-34q0 -133 -90 -219.5t-267 -86.5q-186 0 -280 103.5t-94 298.5z" />
<glyph unicode="d" horiz-adv-x="1026" d="M113 289v377q0 186 104.5 276t249.5 90q113 0 207 -64.5t121 -181.5h6v674h61v-1460h-57v238h-6q-55 -139 -150.5 -202t-199.5 -63q-156 0 -246 87.5t-90 228.5zM174 303q0 -117 79 -195.5t216 -78.5q127 0 229.5 113.5t102.5 285.5v178q0 164 -97.5 268.5t-232.5 104.5 q-121 0 -209 -77t-88 -220v-379z" />
<glyph unicode="e" horiz-adv-x="983" d="M113 377v229q0 201 110.5 313.5t290.5 112.5q170 0 268.5 -104.5t98.5 -292.5v-127h-707v-150q0 -154 90 -242.5t256 -88.5q174 0 291 129l43 -31q-117 -152 -342 -152q-190 0 -294.5 100.5t-104.5 303.5zM174 557h645v86q0 141 -76.5 238.5t-242.5 97.5 q-156 0 -241 -105.5t-85 -244.5v-72z" />
<glyph unicode="f" horiz-adv-x="667" d="M78 952v52h213v208q0 131 67.5 204t184.5 73q57 0 106 -14v-56q-41 12 -110 13q-84 0 -135.5 -51.5t-51.5 -159.5v-217h281v-52h-281v-952h-61v952h-213z" />
<glyph unicode="g" horiz-adv-x="1019" d="M113 332v348q0 170 107.5 261t244.5 91q100 0 199.5 -57t134.5 -180h2v211h59v-1033q0 -176 -109.5 -282.5t-291.5 -106.5q-203 0 -328 140l49 34q106 -123 281 -123q154 0 247 91.5t93 248.5v267h-4q-51 -119 -145.5 -176.5t-205.5 -57.5q-156 0 -244.5 90.5 t-88.5 233.5zM174 334q0 -117 77 -195t220 -78q131 0 230.5 101.5t99.5 286.5v178q0 160 -102.5 256t-227.5 96q-119 0 -208 -78t-89 -219v-348z" />
<glyph unicode="h" horiz-adv-x="1048" d="M162 1460h61v-678h4q51 121 151.5 185.5t221.5 64.5q143 0 219 -83t76 -204v-745h-61v692q0 285 -254 285q-133 0 -245 -105.5t-112 -257.5v-614h-61v1460z" />
<glyph unicode="i" horiz-adv-x="382" d="M162 0v1006h61v-1006h-61zM162 1243v184h61v-184h-61z" />
<glyph unicode="j" horiz-adv-x="434" d="M-63 -373q23 -2 75 -2q111 0 155 59.5t44 170.5v1151h61v-1162q0 -274 -264 -274q-53 0 -71 2v55zM211 1243v184h61v-184h-61z" />
<glyph unicode="k" horiz-adv-x="923" d="M162 0v1460h61v-1028l533 574h78l-338 -365l378 -641h-69l-356 596l-226 -238v-358h-61z" />
<glyph unicode="l" horiz-adv-x="573" d="M164 225v1235h63v-1247q0 -76 44 -122t128 -46q59 0 113 12v-51q-55 -14 -131 -14q-106 0 -161.5 62t-55.5 171z" />
<glyph unicode="m" horiz-adv-x="1718" d="M162 0v1006h57v-224h4q51 121 153.5 185.5t223.5 64.5q129 0 201.5 -72.5t85.5 -179.5h2q51 123 154.5 187.5t226.5 64.5q141 0 218 -83t77 -201v-748h-64v694q0 145 -67.5 214t-184.5 69q-131 0 -240.5 -101.5t-115.5 -244.5v-631h-62v707q-8 270 -253 270 q-131 0 -243 -104.5t-112 -256.5v-616h-61z" />
<glyph unicode="n" horiz-adv-x="1048" d="M162 1006h57v-224h4q51 121 153.5 185.5t223.5 64.5q143 0 219 -83t76 -204v-745h-61v692q0 285 -254 285q-133 0 -245 -105.5t-112 -257.5v-614h-61v1006z" />
<glyph unicode="o" horiz-adv-x="995" d="M113 356v289q0 190 103 288.5t284 98.5q188 0 286.5 -98t98.5 -289v-285q0 -188 -101.5 -287.5t-279.5 -99.5q-190 0 -290.5 97.5t-100.5 285.5zM174 360q0 -334 330 -333q168 0 242.5 87t74.5 253v282q0 150 -77.5 240t-245.5 90q-166 0 -245 -91t-79 -249v-279z" />
<glyph unicode="p" horiz-adv-x="1021" d="M162 -397v1403h57v-209h6q45 117 144.5 176t205.5 59q156 0 246 -87t90 -228v-377q0 -186 -104.5 -276.5t-249.5 -90.5q-113 0 -207 64.5t-123 181.5h-4v-616h-61zM221 399q0 -164 97.5 -268t234.5 -104q119 0 207 77.5t88 219.5v378q0 117 -78 196t-217 79 q-129 0 -230.5 -106.5t-101.5 -276.5v-195z" />
<glyph unicode="q" horiz-adv-x="1021" d="M113 289v377q0 186 104.5 276t249.5 90q113 0 209 -64.5t123 -181.5h4v220h59v-1403h-61v616h-6q-111 -246 -346 -246q-156 0 -246 87.5t-90 228.5zM174 303q0 -117 79 -195.5t216 -78.5q127 0 229.5 113.5t102.5 285.5v178q0 164 -97.5 268.5t-232.5 104.5 q-121 0 -209 -77t-88 -220v-379z" />
<glyph unicode="r" horiz-adv-x="708" d="M160 0v1006h59v-250h2q102 262 397 262q31 0 64 -4v-60q-35 4 -92 4q-156 0 -259.5 -105t-109.5 -288v-565h-61z" />
<glyph unicode="s" horiz-adv-x="907" d="M82 100l43 41q137 -113 330 -112q115 0 201.5 63.5t86.5 167.5q0 102 -56 149.5t-173 71.5l-100 23q-291 57 -291 256q0 115 85 193.5t245 78.5q199 0 305 -86l-39 -39q-117 74 -275 74q-113 0 -185.5 -60.5t-72.5 -148.5t58.5 -136t187.5 -77l148 -33q227 -59 227 -243 q0 -145 -104.5 -227.5t-249.5 -82.5q-238 0 -371 127z" />
<glyph unicode="t" horiz-adv-x="743" d="M49 952v52h213v323h62v-323h338v-52h-338v-747q0 -92 45 -130t141 -38q59 0 170 26v-51q-80 -31 -193 -30q-225 0 -225 202v768h-213z" />
<glyph unicode="u" horiz-adv-x="1046" d="M152 274v732h63v-709q0 -145 66.5 -206.5t187.5 -61.5q133 0 244.5 107.5t111.5 258.5v611h62v-1006h-58v225h-4q-51 -121 -154.5 -186.5t-224.5 -65.5q-143 0 -218.5 84t-75.5 217z" />
<glyph unicode="v" horiz-adv-x="929" d="M59 1006h68l332 -936h2l348 936h59l-376 -1010h-66z" />
<glyph unicode="w" horiz-adv-x="1499" d="M68 1006h67l281 -932h2l299 932h69l285 -932h2l297 932h62l-330 -1010h-64l-286 934h-4l-299 -934h-66z" />
<glyph unicode="x" horiz-adv-x="876" d="M43 0l358 528l-325 478h71l295 -439l297 439h68l-326 -478l353 -528h-68l-330 485l-325 -485h-68z" />
<glyph unicode="y" horiz-adv-x="942" d="M16 -346q57 -18 134 -19q158 0 221 166l84 219l-387 986h67l348 -904h2l332 904h62l-443 -1190q-78 -233 -297 -234q-59 0 -123 17v55z" />
<glyph unicode="z" horiz-adv-x="884" d="M86 0v41l627 913h-609v52h687v-45l-627 -912h629v-49h-707z" />
<glyph unicode="{" horiz-adv-x="655" d="M131 600v45q90 20 90 90v635q0 43 25.5 66.5t66.5 23.5h256v-49h-254q-35 0 -34 -41v-637q0 -74 -76 -106v-4q76 -33 76 -113v-797q0 -41 34 -41h254v-49h-256q-41 0 -66.5 23.5t-25.5 66.5v793q0 82 -90 94z" />
<glyph unicode="|" horiz-adv-x="663" d="M303 -109v1594h57v-1594h-57z" />
<glyph unicode="}" horiz-adv-x="655" d="M86 -328h256q33 0 33 41v797q0 78 76 113v4q-76 33 -76 106v637q0 41 -33 41h-256v49h256q41 0 67.5 -23.5t26.5 -66.5v-635q0 -70 90 -90v-45q-90 -12 -90 -94v-793q0 -43 -26.5 -66.5t-67.5 -23.5h-256v49z" />
<glyph unicode="~" horiz-adv-x="1159" d="M92 578q10 63 49 105t103 42q55 0 332.5 -43t336.5 -43q45 0 69 26.5t42 79.5l43 -8q-18 -68 -58 -109.5t-98 -41.5q-59 0 -341.5 44t-331.5 44q-35 0 -57.5 -19.5t-29 -34t-16.5 -49.5z" />
<glyph unicode="&#xa1;" horiz-adv-x="552" d="M242 903v178h71v-178h-71zM244 84l8 618h47l8 -618v-465h-63v465z" />
<glyph unicode="&#xa2;" horiz-adv-x="1044" d="M164 436v266q0 180 91 286t259 112v225h55v-225q158 -8 239 -91t81 -208v-39h-60v51q0 86 -68.5 161t-221.5 75q-160 0 -237 -99.5t-77 -255.5v-254q0 -346 312 -346q154 0 223 75t69 161v51h60v-39q0 -125 -81 -208t-239 -91v-223h-55v223q-350 8 -350 393z" />
<glyph unicode="&#xa3;" horiz-adv-x="1150" d="M131 0v57h174v666h-166v49h166v342q0 193 102.5 283t266.5 90t252 -79t88 -228v-45h-62v61q0 121 -77.5 178.5t-206.5 57.5q-133 0 -217 -74t-84 -232v-354h479v-49h-479v-666h686l-21 -57h-901z" />
<glyph unicode="&#xa4;" horiz-adv-x="638" d="M66 508l63 63q-49 68 -49 144q0 74 47 137l-61 61l53 56l61 -62q68 45 135 45q80 0 144 -45l61 62l53 -54l-61 -61q49 -70 49 -143.5t-51 -141.5l63 -61l-53 -53l-63 61q-59 -41 -135 -41q-78 0 -142 41l-61 -63zM158 709q0 -68 45 -117t114 -49q76 0 120 46t44 126 q0 76 -48 123t-111 47q-76 0 -120 -46t-44 -130z" />
<glyph unicode="&#xa5;" horiz-adv-x="1157" d="M72 596v51h460l-450 813h76l415 -760l416 760h72l-453 -813h471v-51h-477v-596h-63v596h-467z" />
<glyph unicode="&#xa6;" horiz-adv-x="931" d="M438 -104v757h56v-757h-56zM438 793v669h56v-669h-56z" />
<glyph unicode="&#xa7;" horiz-adv-x="1189" d="M227 86v49h54v-33q0 -115 93 -174t242 -59q147 0 236.5 63.5t89.5 173.5q0 51 -18.5 88t-49 59.5t-66.5 38t-75 30.5q-14 4 -20 6l-197 63q-248 76 -248 262q0 82 53.5 158t163.5 123q-121 51 -169 109.5t-48 148.5q0 113 90.5 191.5t266.5 78.5q170 0 262 -71.5 t92 -198.5v-43h-53v41q0 104 -79 163.5t-220 59.5q-133 0 -216 -57.5t-83 -165.5q0 -139 196 -211q4 0 102.5 -41t102.5 -43q119 -43 190.5 -102.5t71.5 -155.5q0 -186 -221 -272q117 -33 177 -99q57 -61 57 -142v-11q0 -133 -106.5 -216t-285.5 -83q-98 0 -181 24.5 t-143.5 89t-60.5 158.5zM330 659q0 -80 59.5 -134t136.5 -79l181 -59q104 31 165.5 94.5t61.5 153.5q0 41 -18.5 74.5t-53.5 58.5t-62.5 39t-68.5 31l-192 71q-84 -31 -146.5 -98.5t-62.5 -151.5z" />
<glyph unicode="&#xa8;" horiz-adv-x="798" d="M180 1182v161h64v-161h-64zM559 1182v161h66v-161h-66z" />
<glyph unicode="&#xa9;" horiz-adv-x="1916" d="M137 711q0 350 229.5 592.5t587.5 242.5q371 0 598.5 -240.5t227.5 -594.5q0 -358 -223.5 -600t-602.5 -242q-383 0 -600 231.5t-217 610.5zM193 711q0 -373 215 -585t557 -212q330 0 545.5 220t215.5 577q0 367 -224 575.5t-548 208.5q-322 0 -541.5 -214t-219.5 -570z M563 555v279q0 195 103.5 306t290 111t280.5 -88t94 -225v-41h-59v51q0 92 -72 171t-239 79q-172 0 -253 -105.5t-81 -267.5v-268q0 -365 331 -364q88 0 154 25.5t98.5 66.5t47 81t14.5 76v54h59v-41q0 -139 -94 -227.5t-281 -88.5q-393 0 -393 416z" />
<glyph unicode="&#xaa;" horiz-adv-x="753" d="M127 971q0 59 25.5 101t67.5 62.5t82 28.5t81 8h174v109q0 154 -170 154q-72 0 -125 -33t-53 -98v-23h-51v20q0 88 68.5 132.5t170.5 44.5q96 0 157.5 -44t61.5 -137v-327q0 -104 7 -162h-56l-6 113q-66 -129 -223 -129q-86 0 -148.5 48t-62.5 132zM160 635v53h467v-53 h-467zM186 977q0 -66 49.5 -102.5t114.5 -36.5q88 0 147.5 53t59.5 143v94h-166q-205 1 -205 -151z" />
<glyph unicode="&#xab;" horiz-adv-x="1112" d="M131 551l361 364l40 -36l-305 -328l308 -328l-39 -37zM580 551l358 364l41 -36l-303 -328l305 -328l-39 -37z" />
<glyph unicode="&#xac;" horiz-adv-x="1179" d="M74 565v49h987v-473h-51v424h-936z" />
<glyph unicode="&#xad;" horiz-adv-x="718" d="M111 555v61h497v-61h-497z" />
<glyph unicode="&#xae;" horiz-adv-x="1064" d="M125 1081q0 188 120 311.5t308 123.5q195 0 313.5 -121t118.5 -314q0 -180 -121 -305t-311 -125q-197 0 -312.5 123t-115.5 307zM170 1081q0 -174 113.5 -279.5t269.5 -105.5t271.5 106.5t115.5 278.5q0 176 -112.5 285t-274.5 109t-272.5 -108t-110.5 -286zM393 813v541 h187q82 0 132 -42t50 -114q0 -66 -38 -108.5t-112 -51.5q76 -104 174 -225h-55l-172 223h-117v-223h-49zM442 1077h121q147 0 148 119q0 115 -150 115h-119v-234z" />
<glyph unicode="&#xaf;" horiz-adv-x="823" d="M158 1239v57h506v-57h-506z" />
<glyph unicode="&#xb0;" horiz-adv-x="755" d="M168 1270q0 86 61.5 148.5t147.5 62.5q88 0 149.5 -61.5t61.5 -149.5t-60.5 -147.5t-150.5 -59.5q-88 0 -148.5 59.5t-60.5 147.5zM207 1269.5q0 -71.5 49 -120.5t121 -49t123 49t51 120.5t-51 123t-123 51.5t-121 -51.5t-49 -123z" />
<glyph unicode="&#xb1;" horiz-adv-x="1159" d="M96 780v47h459v459h51v-459h455v-47h-455v-458h-51v458h-459zM98 55v49h961v-49h-961z" />
<glyph unicode="&#xb2;" horiz-adv-x="698" d="M113 1393v30q0 90 62.5 139.5t164.5 49.5q109 0 165 -57.5t56 -151.5q0 -111 -52 -206t-159 -216l-147 -154v-4h383v-45h-457v35l203 221q174 201 174 363v6q0 74 -44 119t-128 45q-76 0 -124 -37t-48 -105v-32h-49z" />
<glyph unicode="&#xb3;" horiz-adv-x="700" d="M104 924v39h52v-31q0 -66 57 -100.5t133 -34.5q80 0 137.5 50t57.5 136q0 55 -22.5 95t-57.5 58.5t-64.5 25.5t-54.5 7h-90v43h92q78 0 124 46.5t46 130.5q0 86 -49 126.5t-121 40.5q-76 0 -129 -35.5t-53 -111.5v-23h-49v31q0 82 63.5 132t169.5 50q113 0 166 -61 t53 -139q0 -170 -143 -203v-2q76 -18 125 -71.5t49 -133.5q0 -106 -71.5 -171.5t-182.5 -65.5q-115 0 -176.5 52t-61.5 120z" />
<glyph unicode="&#xb4;" horiz-adv-x="565" d="M186 1169l215 301h78l-235 -301h-58z" />
<glyph unicode="&#xb5;" horiz-adv-x="993" d="M166 -365v1391h82v-762q0 -113 61.5 -164t161.5 -51q109 0 191.5 90t82.5 217v670h82v-764q0 -131 101 -172v-94q-70 27 -113 78t-51 112q-92 -211 -309 -211q-158 0 -226 123h-4l33 -456z" />
<glyph unicode="&#xb6;" horiz-adv-x="1271" d="M156 971q0 195 111.5 342t285.5 147h598v-53h-193v-1591h-51v1591h-315v-1591h-49v673q-197 10 -292 145.5t-95 336.5z" />
<glyph unicode="&#xb7;" horiz-adv-x="378" d="M154 774v178h73v-178h-73z" />
<glyph unicode="&#x22c5;" horiz-adv-x="378" d="M154 774v178h73v-178h-73z" />
<glyph unicode="&#xb8;" horiz-adv-x="563" d="M51 -322q98 -39 203 -38q154 0 154 104q0 94 -177 96h-43l29 172h45l-24 -131q225 0 225 -133q0 -70 -52.5 -113t-156.5 -43q-113 0 -203 41v45z" />
<glyph unicode="&#xb9;" horiz-adv-x="624" d="M88 778v41h213v721l-195 -39l-6 37l226 53h28v-772h199v-41h-465z" />
<glyph unicode="&#xba;" horiz-adv-x="753" d="M135 1040v170q0 123 64.5 186.5t179.5 63.5q244 0 244 -250v-170q0 -119 -64.5 -183t-179.5 -64q-244 -1 -244 247zM145 635v53h467v-53h-467zM190 1042q0 -205 189 -204q186 0 186 206v170q0 199 -186 199q-188 0 -189 -205v-166z" />
<glyph unicode="&#xbb;" horiz-adv-x="1112" d="M131 879l37 36l364 -364l-360 -365l-39 37l303 328zM578 879l38 36l363 -364l-358 -365l-41 37l303 328z" />
<glyph unicode="&#xbc;" horiz-adv-x="1644" d="M88 649v41h213v721l-195 -39l-6 37l226 53h28v-772h199v-41h-465zM389 -4l807 1466h51l-803 -1466h-55zM979 238v41l344 538h61l-350 -536h307v208l52 37v-245h125v-43h-125v-238h-52v238h-362z" />
<glyph unicode="&#xbd;" horiz-adv-x="1644" d="M88 649v41h213v721l-195 -39l-6 37l226 53h28v-772h199v-41h-465zM389 -4l807 1466h51l-803 -1466h-55zM1016 614v31q0 90 62.5 139.5t164.5 49.5q109 0 165 -57.5t56 -151.5q0 -111 -52 -206t-159 -216l-147 -154v-4h383v-45h-457v35l203 221q174 201 174 362v7 q0 74 -44 118.5t-128 44.5q-76 0 -124 -36.5t-48 -104.5v-33h-49z" />
<glyph unicode="&#xbe;" horiz-adv-x="1644" d="M104 795v39h52v-31q0 -66 57 -100.5t133 -34.5q80 0 137.5 50t57.5 136q0 55 -22.5 95t-57.5 58.5t-64.5 25.5t-54.5 7h-90v43h92q78 0 124 46.5t46 130.5q0 86 -49 126.5t-121 40.5q-76 0 -129 -35.5t-53 -111.5v-23h-49v31q0 82 63.5 132t169.5 50q113 0 166 -61 t53 -139q0 -170 -143 -203v-2q76 -18 125 -71.5t49 -133.5q0 -106 -71.5 -171.5t-182.5 -65.5q-115 0 -176.5 52t-61.5 120zM391 -4l807 1466h51l-803 -1466h-55zM979 238v41l344 538h61l-350 -536h307v208l52 37v-245h125v-43h-125v-238h-52v238h-362z" />
<glyph unicode="&#xbf;" horiz-adv-x="1048" d="M152 -72q0 68 17 128.5t58 116.5t70 89t84 86q47 47 72.5 78t50 81t28.5 105v93h64v-95q-6 -68 -37 -129t-60.5 -95t-88.5 -93q-100 -100 -146.5 -176t-46.5 -185q0 -145 85 -215.5t233 -70.5q123 0 219 65.5t96 206.5v51h61v-41q0 -164 -108.5 -249t-276.5 -85 q-172 0 -273 86t-101 248zM528 903v178h74v-178h-74z" />
<glyph unicode="&#xc0;" horiz-adv-x="1314" d="M84 0l547 1468h65l537 -1468h-68l-192 526h-633l-193 -526h-63zM358 582h596l-292 811h-3zM399 1921h78l215 -301h-57z" />
<glyph unicode="&#xc1;" horiz-adv-x="1314" d="M84 0l547 1468h65l537 -1468h-68l-192 526h-633l-193 -526h-63zM358 582h596l-292 811h-3zM631 1620l215 301h78l-236 -301h-57z" />
<glyph unicode="&#xc2;" horiz-adv-x="1314" d="M84 0l547 1468h65l537 -1468h-68l-192 526h-633l-193 -526h-63zM358 582h596l-292 811h-3zM446 1612l183 301h65l172 -301h-63l-141 252l-150 -252h-66z" />
<glyph unicode="&#xc3;" horiz-adv-x="1314" d="M84 0l547 1468h65l537 -1468h-68l-192 526h-633l-193 -526h-63zM350 1640q10 61 52 104.5t104 43.5q57 0 155.5 -40t145.5 -40q45 0 69.5 24.5t41.5 75.5l47 -10q-16 -70 -59.5 -108.5t-100.5 -38.5q-53 0 -153.5 41t-149.5 41q-70 0 -103 -101zM358 582h596l-292 811h-3 z" />
<glyph unicode="&#xc4;" horiz-adv-x="1314" d="M84 0l547 1468h65l537 -1468h-68l-192 526h-633l-193 -526h-63zM358 582h596l-292 811h-3zM434 1632v162h64v-162h-64zM813 1632v162h66v-162h-66z" />
<glyph unicode="&#xc5;" horiz-adv-x="1314" d="M84 0l547 1468h65l537 -1468h-68l-192 526h-633l-193 -526h-63zM358 582h596l-292 811h-3zM494 1751q0 70 45 120t114 50q82 0 125 -45t43 -116.5t-46 -121t-118 -49.5q-80 0 -121.5 48t-41.5 114zM537 1751q0 -63 35.5 -94t84.5 -31q51 0 87 34t36 95q0 59 -34.5 93 t-92.5 34q-53 0 -84.5 -35t-31.5 -96z" />
<glyph unicode="&#xc6;" horiz-adv-x="1941" d="M55 0l863 1460h905v-57h-803v-612h645v-58h-645v-676h803v-57h-867v467h-555l-274 -467h-72zM434 522h522v887z" />
<glyph unicode="&#xc7;" horiz-adv-x="1269" d="M139 446v547q0 213 147.5 355.5t381.5 142.5q219 0 353 -115.5t134 -283.5v-97h-61v78q0 158 -113 257.5t-324 99.5q-205 0 -327.5 -126t-122.5 -319v-516q0 -201 124 -319.5t337 -118.5q209 0 317.5 99t108.5 259v43h61v-63q0 -174 -129 -284t-348 -112l-16 -92 q225 0 225 -133q0 -70 -52.5 -113t-156.5 -43q-113 0 -203 41v45q98 -39 203 -38q154 0 153 104q0 94 -176 96h-43l23 133q-225 10 -360.5 131t-135.5 342z" />
<glyph unicode="&#xc8;" horiz-adv-x="1161" d="M174 0v1460h866v-57h-802v-615h645v-57h-645v-674h802v-57h-866zM371 1921h78l215 -301h-58z" />
<glyph unicode="&#xc9;" horiz-adv-x="1161" d="M174 0v1460h866v-57h-802v-615h645v-57h-645v-674h802v-57h-866zM446 1620l216 301h77l-235 -301h-58z" />
<glyph unicode="&#xca;" horiz-adv-x="1161" d="M174 0v1460h866v-57h-802v-615h645v-57h-645v-674h802v-57h-866zM393 1612l182 301h66l172 -301h-63l-142 252l-149 -252h-66z" />
<glyph unicode="&#xcb;" horiz-adv-x="1161" d="M174 0v1460h866v-57h-802v-615h645v-57h-645v-674h802v-57h-866zM393 1632v162h64v-162h-64zM772 1632v162h66v-162h-66z" />
<glyph unicode="&#xcc;" horiz-adv-x="411" d="M-61 1921h77l215 -301h-57zM174 0v1460h64v-1460h-64z" />
<glyph unicode="&#xcd;" horiz-adv-x="411" d="M174 0v1460h64v-1460h-64zM180 1620l215 301h78l-235 -301h-58z" />
<glyph unicode="&#xce;" horiz-adv-x="411" d="M-2 1612l182 301h66l172 -301h-64l-141 252l-150 -252h-65zM174 0v1460h64v-1460h-64z" />
<glyph unicode="&#xcf;" horiz-adv-x="411" d="M-16 1632v162h63v-162h-63zM174 0v1460h64v-1460h-64zM362 1632v162h66v-162h-66z" />
<glyph unicode="&#xd0;" horiz-adv-x="1366" d="M66 745v52h161v663h518q221 0 350.5 -116.5t129.5 -335.5v-539q0 -217 -131 -343t-349 -126h-518v745h-161zM291 57h446q209 0 315.5 119t106.5 285v532q0 182 -106.5 296t-315.5 114h-446v-606h497v-52h-497v-688z" />
<glyph unicode="&#xd1;" horiz-adv-x="1347" d="M174 0v1460h74l864 -1341h4v1341h60v-1460h-64l-876 1372h-3v-1372h-59zM367 1640q10 61 52 104.5t103 43.5q57 0 155.5 -40t145.5 -40q45 0 70 24.5t41 75.5l47 -10q-16 -70 -59 -108.5t-101 -38.5q-53 0 -153.5 41t-149.5 41q-70 0 -102 -101z" />
<glyph unicode="&#xd2;" d="M139 446v529q0 236 145.5 376t383.5 140q236 0 381 -126t145 -353v-523q0 -236 -145.5 -376t-380.5 -140q-231 0 -380 123t-149 350zM207 469q0 -201 124 -319.5t337 -118.5q209 0 334.5 122.5t125.5 323.5v533q0 195 -125.5 307.5t-345.5 112.5q-207 0 -328.5 -129.5 t-121.5 -335.5v-496zM424 1921h78l215 -301h-58z" />
<glyph unicode="&#xd3;" d="M139 446v529q0 236 145.5 376t383.5 140q236 0 381 -126t145 -353v-523q0 -236 -145.5 -376t-380.5 -140q-231 0 -380 123t-149 350zM207 469q0 -201 124 -319.5t337 -118.5q209 0 334.5 122.5t125.5 323.5v533q0 195 -125.5 307.5t-345.5 112.5q-207 0 -328.5 -129.5 t-121.5 -335.5v-496zM637 1620l215 301h78l-236 -301h-57z" />
<glyph unicode="&#xd4;" d="M139 446v529q0 236 145.5 376t383.5 140q236 0 381 -126t145 -353v-523q0 -236 -145.5 -376t-380.5 -140q-231 0 -380 123t-149 350zM207 469q0 -201 124 -319.5t337 -118.5q209 0 334.5 122.5t125.5 323.5v533q0 195 -125.5 307.5t-345.5 112.5q-207 0 -328.5 -129.5 t-121.5 -335.5v-496zM455 1612l182 301h65l172 -301h-63l-141 252l-150 -252h-65z" />
<glyph unicode="&#xd5;" d="M139 446v529q0 236 145.5 376t383.5 140q236 0 381 -126t145 -353v-523q0 -236 -145.5 -376t-380.5 -140q-231 0 -380 123t-149 350zM207 469q0 -201 124 -319.5t337 -118.5q209 0 334.5 122.5t125.5 323.5v533q0 195 -125.5 307.5t-345.5 112.5q-207 0 -328.5 -129.5 t-121.5 -335.5v-496zM358 1640q10 61 52.5 104.5t103.5 43.5q57 0 155.5 -40t145.5 -40q45 0 69.5 24.5t41.5 75.5l47 -10q-16 -70 -59.5 -108.5t-100.5 -38.5q-53 0 -153.5 41t-149.5 41q-70 0 -102 -101z" />
<glyph unicode="&#xd6;" d="M139 446v529q0 236 145.5 376t383.5 140q236 0 381 -126t145 -353v-523q0 -236 -145.5 -376t-380.5 -140q-231 0 -380 123t-149 350zM207 469q0 -201 124 -319.5t337 -118.5q209 0 334.5 122.5t125.5 323.5v533q0 195 -125.5 307.5t-345.5 112.5q-207 0 -328.5 -129.5 t-121.5 -335.5v-496zM444 1632v162h64v-162h-64zM823 1632v162h66v-162h-66z" />
<glyph unicode="&#xd7;" horiz-adv-x="1146" d="M156 266l383 383l-383 383l37 35l380 -381l379 379l37 -35l-379 -381l379 -377l-35 -36l-381 378l-383 -383z" />
<glyph unicode="&#xd8;" d="M139 446v529q0 236 145.5 376t383.5 140q217 0 354 -105l78 136l47 -25l-84 -145q131 -127 131 -340v-523q0 -236 -145.5 -376t-380.5 -140q-209 0 -349 99l-86 -148l-45 25l91 155q-140 123 -140 342zM207 469q0 -190 106 -303l674 1163q-127 100 -330 101 q-207 0 -328.5 -129.5t-121.5 -335.5v-496zM352 129q121 -98 316 -98q209 0 334.5 122.5t125.5 323.5v533q0 172 -100 282z" />
<glyph unicode="&#xd9;" horiz-adv-x="1345" d="M162 451v1009h63v-983q0 -233 129 -339.5t322 -106.5q207 0 330 115q117 110 117 296q0 9 -1 19v999h60v-1007v-13q0 -212 -138 -338q-141 -129 -376 -129q-92 0 -177 26t-161 79t-122 149.5t-46 223.5zM451 1921h77l215 -301h-57z" />
<glyph unicode="&#xda;" horiz-adv-x="1345" d="M162 451v1009h63v-983q0 -233 129 -339.5t322 -106.5q207 0 330 115q117 110 117 296q0 9 -1 19v999h60v-1007v-13q0 -212 -138 -338q-141 -129 -376 -129q-92 0 -177 26t-161 79t-122 149.5t-46 223.5zM645 1620l215 301h78l-236 -301h-57z" />
<glyph unicode="&#xdb;" horiz-adv-x="1345" d="M162 451v1009h63v-983q0 -233 129 -339.5t322 -106.5q207 0 330 115q117 110 117 296q0 9 -1 19v999h60v-1007v-13q0 -212 -138 -338q-141 -129 -376 -129q-92 0 -177 26t-161 79t-122 149.5t-46 223.5zM461 1612l182 301h66l172 -301h-64l-141 252l-150 -252h-65z" />
<glyph unicode="&#xdc;" horiz-adv-x="1345" d="M162 451v1009h63v-983q0 -233 129 -339.5t322 -106.5q207 0 330 115q117 110 117 296q0 9 -1 19v999h60v-1007v-13q0 -212 -138 -338q-141 -129 -376 -129q-92 0 -177 26t-161 79t-122 149.5t-46 223.5zM453 1632v162h63v-162h-63zM831 1632v162h66v-162h-66z" />
<glyph unicode="&#xdd;" horiz-adv-x="1142" d="M82 1460h76l415 -768l416 768h72l-459 -833v-627h-63v627zM547 1620l215 301h78l-236 -301h-57z" />
<glyph unicode="&#xde;" horiz-adv-x="1208" d="M174 0v1460h64v-278h395q207 0 327.5 -119t120.5 -301q0 -199 -135 -315.5t-364 -116.5h-344v-330h-64zM238 385h317q219 0 339 95t120 282q0 158 -108.5 261t-278.5 103h-389v-741z" />
<glyph unicode="&#xdf;" horiz-adv-x="1304" d="M78 952v52h211v102q0 174 120.5 278.5t303.5 104.5q188 0 291.5 -97.5t103.5 -248.5q0 -127 -70.5 -234.5t-218.5 -163.5v-2q201 -33 293 -142t92 -243q0 -168 -114 -273q-113 -103 -281 -103h-6q-152 0 -232 24l4 53q117 -25 222 -24q145 0 243.5 88t98.5 231 q0 96 -45 169t-117 112t-145.5 57.5t-143.5 18.5v49h51q152 53 230 154.5t78 220.5q0 143 -92.5 222t-247.5 79q-164 0 -259.5 -97.5t-95.5 -214.5v-1124h-63v952h-211z" />
<glyph unicode="&#xe0;" horiz-adv-x="997" d="M113 256q0 86 35.5 147.5t95 93t120 46t123.5 14.5h310v182q0 240 -289 240q-121 0 -208 -50t-87 -161v-33h-57v33q0 135 103 199.5t259 64.5q152 0 246 -64.5t94 -207.5v-490q0 -39 6 -150.5t6 -119.5h-59q-8 90 -8 190h-4q-94 -215 -363 -215q-135 0 -229 75t-94 206z M176 258q0 -111 83 -170t194 -59q156 0 250 90t94 241v144h-289q-332 0 -332 -246zM270 1470h78l215 -301h-57z" />
<glyph unicode="&#xe1;" horiz-adv-x="997" d="M113 256q0 86 35.5 147.5t95 93t120 46t123.5 14.5h310v182q0 240 -289 240q-121 0 -208 -50t-87 -161v-33h-57v33q0 135 103 199.5t259 64.5q152 0 246 -64.5t94 -207.5v-490q0 -39 6 -150.5t6 -119.5h-59q-8 90 -8 190h-4q-94 -215 -363 -215q-135 0 -229 75t-94 206z M176 258q0 -111 83 -170t194 -59q156 0 250 90t94 241v144h-289q-332 0 -332 -246zM483 1169l215 301h78l-235 -301h-58z" />
<glyph unicode="&#xe2;" horiz-adv-x="997" d="M113 256q0 86 35.5 147.5t95 93t120 46t123.5 14.5h310v182q0 240 -289 240q-121 0 -208 -50t-87 -161v-33h-57v33q0 135 103 199.5t259 64.5q152 0 246 -64.5t94 -207.5v-490q0 -39 6 -150.5t6 -119.5h-59q-8 90 -8 190h-4q-94 -215 -363 -215q-135 0 -229 75t-94 206z M176 258q0 -111 83 -170t194 -59q156 0 250 90t94 241v144h-289q-332 0 -332 -246zM287 1161l182 301h66l172 -301h-64l-141 252l-150 -252h-65z" />
<glyph unicode="&#xe3;" horiz-adv-x="997" d="M113 256q0 86 35.5 147.5t95 93t120 46t123.5 14.5h310v182q0 240 -289 240q-121 0 -208 -50t-87 -161v-33h-57v33q0 135 103 199.5t259 64.5q152 0 246 -64.5t94 -207.5v-490q0 -39 6 -150.5t6 -119.5h-59q-8 90 -8 190h-4q-94 -215 -363 -215q-135 0 -229 75t-94 206z M176 258q0 -111 83 -170t194 -59q156 0 250 90t94 241v144h-289q-332 0 -332 -246zM193 1190q10 61 52 104t103 43q57 0 155.5 -40t145.5 -40q45 0 69.5 25t41.5 76l47 -10q-16 -70 -59 -109t-101 -39q-53 0 -153.5 41t-149.5 41q-70 0 -102 -100z" />
<glyph unicode="&#xe4;" horiz-adv-x="997" d="M113 256q0 86 35.5 147.5t95 93t120 46t123.5 14.5h310v182q0 240 -289 240q-121 0 -208 -50t-87 -161v-33h-57v33q0 135 103 199.5t259 64.5q152 0 246 -64.5t94 -207.5v-490q0 -39 6 -150.5t6 -119.5h-59q-8 90 -8 190h-4q-94 -215 -363 -215q-135 0 -229 75t-94 206z M176 258q0 -111 83 -170t194 -59q156 0 250 90t94 241v144h-289q-332 0 -332 -246zM274 1182v161h64v-161h-64zM653 1182v161h66v-161h-66z" />
<glyph unicode="&#xe5;" horiz-adv-x="997" d="M113 256q0 86 35.5 147.5t95 93t120 46t123.5 14.5h310v182q0 240 -289 240q-121 0 -208 -50t-87 -161v-33h-57v33q0 135 103 199.5t259 64.5q152 0 246 -64.5t94 -207.5v-490q0 -39 6 -150.5t6 -119.5h-59q-8 90 -8 190h-4q-94 -215 -363 -215q-135 0 -229 75t-94 206z M176 258q0 -111 83 -170t194 -59q156 0 250 90t94 241v144h-289q-332 0 -332 -246zM334 1300q0 70 45 120t115 50q82 0 124.5 -45t42.5 -116.5t-46 -120.5t-117 -49q-80 0 -122 47.5t-42 113.5zM377 1300q0 -63 36 -93.5t85 -30.5q51 0 87 33.5t36 95.5q0 59 -35 93t-92 34 q-53 0 -85 -35.5t-32 -96.5z" />
<glyph unicode="&#xe6;" horiz-adv-x="1667" d="M113 256q0 86 35.5 147.5t95 93t120 46t123.5 14.5h310v182q0 240 -289 240q-121 0 -208 -50t-87 -161v-33h-57v33q0 135 103 199.5t259 64.5q129 0 218 -50t110 -157q47 100 139 153.5t213 53.5q170 0 268.5 -104.5t98.5 -292.5v-127h-707v-150q0 -154 90 -242.5 t256 -88.5q174 0 291 129l45 -31q-119 -152 -344 -152q-307 0 -379 248q-92 -246 -381 -246q-135 0 -229 75t-94 206zM176 258q0 -111 83 -170t194 -59q154 0 248 89t96 240v146h-289q-332 0 -332 -246zM858 557h645v86q0 141 -76.5 238.5t-242.5 97.5q-152 0 -237 -102.5 t-89 -237.5v-82z" />
<glyph unicode="&#xe7;" horiz-adv-x="933" d="M113 375v252q0 188 98 296.5t274.5 108.5t267.5 -86t91 -219v-35h-60v47q0 88 -69.5 164t-225.5 76q-160 0 -237.5 -100.5t-77.5 -255.5v-248q0 -348 315 -348q156 0 225.5 75.5t69.5 163.5v47h60v-34q0 -129 -84 -213t-248 -93l-16 -92q225 0 225 -133q0 -70 -52.5 -113 t-156.5 -43q-113 0 -203 41v45q98 -39 203 -38q154 0 154 104q0 94 -177 96h-43l23 133q-356 13 -356 402z" />
<glyph unicode="&#xe8;" horiz-adv-x="983" d="M113 377v229q0 201 110.5 313.5t290.5 112.5q170 0 268.5 -104.5t98.5 -292.5v-127h-707v-150q0 -154 90 -242.5t256 -88.5q174 0 291 129l43 -31q-117 -152 -342 -152q-190 0 -294.5 100.5t-104.5 303.5zM174 557h645v86q0 141 -76.5 238.5t-242.5 97.5 q-156 0 -241 -105.5t-85 -244.5v-72zM233 1470h78l215 -301h-57z" />
<glyph unicode="&#xe9;" horiz-adv-x="983" d="M113 377v229q0 201 110.5 313.5t290.5 112.5q170 0 268.5 -104.5t98.5 -292.5v-127h-707v-150q0 -154 90 -242.5t256 -88.5q174 0 291 129l43 -31q-117 -152 -342 -152q-190 0 -294.5 100.5t-104.5 303.5zM174 557h645v86q0 141 -76.5 238.5t-242.5 97.5 q-156 0 -241 -105.5t-85 -244.5v-72zM489 1169l216 301h77l-235 -301h-58z" />
<glyph unicode="&#xea;" horiz-adv-x="983" d="M113 377v229q0 201 110.5 313.5t290.5 112.5q170 0 268.5 -104.5t98.5 -292.5v-127h-707v-150q0 -154 90 -242.5t256 -88.5q174 0 291 129l43 -31q-117 -152 -342 -152q-190 0 -294.5 100.5t-104.5 303.5zM174 557h645v86q0 141 -76.5 238.5t-242.5 97.5 q-156 0 -241 -105.5t-85 -244.5v-72zM281 1161l182 301h65l172 -301h-63l-141 252l-150 -252h-65z" />
<glyph unicode="&#xeb;" horiz-adv-x="983" d="M113 377v229q0 201 110.5 313.5t290.5 112.5q170 0 268.5 -104.5t98.5 -292.5v-127h-707v-150q0 -154 90 -242.5t256 -88.5q174 0 291 129l43 -31q-117 -152 -342 -152q-190 0 -294.5 100.5t-104.5 303.5zM174 557h645v86q0 141 -76.5 238.5t-242.5 97.5 q-156 0 -241 -105.5t-85 -244.5v-72zM268 1182v161h64v-161h-64zM647 1182v161h66v-161h-66z" />
<glyph unicode="&#xec;" horiz-adv-x="382" d="M-63 1470h77l215 -301h-57zM162 0v1006h61v-1006h-61z" />
<glyph unicode="&#xed;" horiz-adv-x="382" d="M162 0v1006h61v-1006h-61zM162 1169l215 301h78l-236 -301h-57z" />
<glyph unicode="&#xee;" horiz-adv-x="382" d="M-16 1161l182 301h65l172 -301h-63l-141 252l-150 -252h-65zM162 0v1006h61v-1006h-61z" />
<glyph unicode="&#xef;" horiz-adv-x="382" d="M-29 1182v161h64v-161h-64zM162 0v1006h61v-1006h-61zM350 1182v161h66v-161h-66z" />
<glyph unicode="&#xf0;" horiz-adv-x="995" d="M113 356v273q0 188 110.5 294.5t290.5 108.5q104 0 186 -43l-182 297l-219 -61l-18 41l204 59l-100 154l59 20l97 -156l243 70l21 -41l-234 -67l116 -186q95 -153 138 -216q57 -98 58 -272v-254q0 -197 -95.5 -300.5t-285.5 -103.5q-188 0 -288.5 97.5t-100.5 285.5z M174 356q0 -330 328 -329q176 0 247.5 92t71.5 264v250q0 164 -66.5 256t-232.5 92q-170 0 -259 -97.5t-89 -260.5v-267z" />
<glyph unicode="&#xf1;" horiz-adv-x="1048" d="M162 1006h57v-224h4q51 121 153.5 185.5t223.5 64.5q143 0 219 -83t76 -204v-745h-61v692q0 285 -254 285q-133 0 -245 -105.5t-112 -257.5v-614h-61v1006zM219 1190q10 61 52 104t104 43q57 0 155.5 -40t145.5 -40q45 0 69.5 25t40.5 76l48 -10q-16 -70 -59.5 -109 t-100.5 -39q-53 0 -153.5 41t-149.5 41q-70 0 -103 -100z" />
<glyph unicode="&#xf2;" horiz-adv-x="995" d="M113 356v289q0 190 103 288.5t284 98.5q188 0 286.5 -98t98.5 -289v-285q0 -188 -101.5 -287.5t-279.5 -99.5q-190 0 -290.5 97.5t-100.5 285.5zM174 360q0 -334 330 -333q168 0 242.5 87t74.5 253v282q0 150 -77.5 240t-245.5 90q-166 0 -245 -91t-79 -249v-279z M242 1470h77l216 -301h-58z" />
<glyph unicode="&#xf3;" horiz-adv-x="995" d="M113 356v289q0 190 103 288.5t284 98.5q188 0 286.5 -98t98.5 -289v-285q0 -188 -101.5 -287.5t-279.5 -99.5q-190 0 -290.5 97.5t-100.5 285.5zM174 360q0 -334 330 -333q168 0 242.5 87t74.5 253v282q0 150 -77.5 240t-245.5 90q-166 0 -245 -91t-79 -249v-279z M449 1169l215 301h77l-235 -301h-57z" />
<glyph unicode="&#xf4;" horiz-adv-x="995" d="M113 356v289q0 190 103 288.5t284 98.5q188 0 286.5 -98t98.5 -289v-285q0 -188 -101.5 -287.5t-279.5 -99.5q-190 0 -290.5 97.5t-100.5 285.5zM174 360q0 -334 330 -333q168 0 242.5 87t74.5 253v282q0 150 -77.5 240t-245.5 90q-166 0 -245 -91t-79 -249v-279z M287 1161l182 301h66l172 -301h-64l-141 252l-150 -252h-65z" />
<glyph unicode="&#xf5;" horiz-adv-x="995" d="M113 356v289q0 190 103 288.5t284 98.5q188 0 286.5 -98t98.5 -289v-285q0 -188 -101.5 -287.5t-279.5 -99.5q-190 0 -290.5 97.5t-100.5 285.5zM174 360q0 -334 330 -333q168 0 242.5 87t74.5 253v282q0 150 -77.5 240t-245.5 90q-166 0 -245 -91t-79 -249v-279z M190 1190q10 61 52.5 104t103.5 43q57 0 155.5 -40t145.5 -40q45 0 69.5 25t41.5 76l47 -10q-16 -70 -59.5 -109t-100.5 -39q-53 0 -153.5 41t-149.5 41q-70 0 -102 -100z" />
<glyph unicode="&#xf6;" horiz-adv-x="995" d="M113 356v289q0 190 103 288.5t284 98.5q188 0 286.5 -98t98.5 -289v-285q0 -188 -101.5 -287.5t-279.5 -99.5q-190 0 -290.5 97.5t-100.5 285.5zM174 360q0 -334 330 -333q168 0 242.5 87t74.5 253v282q0 150 -77.5 240t-245.5 90q-166 0 -245 -91t-79 -249v-279z M274 1182v161h64v-161h-64zM653 1182v161h66v-161h-66z" />
<glyph unicode="&#xf7;" horiz-adv-x="1159" d="M98 627v45h961v-45h-961zM545 229v174h71v-174h-71zM545 881v172h71v-172h-71z" />
<glyph unicode="&#xf8;" horiz-adv-x="995" d="M113 356v289q0 190 103 288.5t284 98.5q156 0 250 -67l69 122l43 -22l-76 -133q98 -96 99 -287v-285q0 -188 -101.5 -287.5t-279.5 -99.5q-139 0 -232 52l-67 -117l-43 22l69 123q-118 96 -118 303zM174 360q0 -168 88 -254l457 805q-84 68 -221 68q-166 0 -245 -91 t-79 -249v-279zM301 76q78 -49 203 -49q168 0 242.5 87t74.5 253v282q0 143 -67 225z" />
<glyph unicode="&#xf9;" horiz-adv-x="1046" d="M152 274v732h63v-709q0 -145 66.5 -206.5t187.5 -61.5q133 0 244.5 107.5t111.5 258.5v611h62v-1006h-58v225h-4q-51 -121 -154.5 -186.5t-224.5 -65.5q-143 0 -218.5 84t-75.5 217zM307 1470h78l215 -301h-57z" />
<glyph unicode="&#xfa;" horiz-adv-x="1046" d="M152 274v732h63v-709q0 -145 66.5 -206.5t187.5 -61.5q133 0 244.5 107.5t111.5 258.5v611h62v-1006h-58v225h-4q-51 -121 -154.5 -186.5t-224.5 -65.5q-143 0 -218.5 84t-75.5 217zM500 1169l215 301h78l-236 -301h-57z" />
<glyph unicode="&#xfb;" horiz-adv-x="1046" d="M152 274v732h63v-709q0 -145 66.5 -206.5t187.5 -61.5q133 0 244.5 107.5t111.5 258.5v611h62v-1006h-58v225h-4q-51 -121 -154.5 -186.5t-224.5 -65.5q-143 0 -218.5 84t-75.5 217zM330 1161l182 301h66l172 -301h-64l-141 252l-150 -252h-65z" />
<glyph unicode="&#xfc;" horiz-adv-x="1046" d="M152 274v732h63v-709q0 -145 66.5 -206.5t187.5 -61.5q133 0 244.5 107.5t111.5 258.5v611h62v-1006h-58v225h-4q-51 -121 -154.5 -186.5t-224.5 -65.5q-143 0 -218.5 84t-75.5 217zM299 1182v161h63v-161h-63zM678 1182v161h65v-161h-65z" />
<glyph unicode="&#xfd;" horiz-adv-x="942" d="M16 -346q57 -18 134 -19q158 0 221 166l84 219l-387 986h67l348 -904h2l332 904h62l-443 -1190q-78 -233 -297 -234q-59 0 -123 17v55zM446 1169l216 301h77l-235 -301h-58z" />
<glyph unicode="&#xfe;" horiz-adv-x="1021" d="M162 1460h61v-663h6q45 117 142.5 176t203.5 59q156 0 246 -87t90 -228v-377q0 -186 -104.5 -276.5t-249.5 -90.5q-113 0 -207 64.5t-123 181.5h-4v-616h-61v1857zM221 399q0 -164 97.5 -268t234.5 -104q119 0 207 77.5t88 219.5v378q0 117 -78 196t-217 79 q-129 0 -230.5 -106.5t-101.5 -276.5v-195z" />
<glyph unicode="&#xff;" horiz-adv-x="942" d="M16 -346q57 -18 134 -19q158 0 221 166l84 219l-387 986h67l348 -904h2l332 904h62l-443 -1190q-78 -233 -297 -234q-59 0 -123 17v55zM272 1182v161h64v-161h-64zM651 1182v161h66v-161h-66z" />
<glyph unicode="&#x152;" horiz-adv-x="2115" d="M139 446v527q0 236 145.5 376t381.5 140q162 0 282.5 -61.5t179.5 -180.5v213h867v-57h-803v-612h645v-58h-645v-676h803v-57h-867v238q-59 -125 -180 -195t-282 -70q-231 0 -379 123t-148 350zM207 469q0 -201 124 -319.5t337 -118.5q209 0 334.5 122.5t125.5 323.5v531 q0 195 -125.5 307t-345.5 112q-207 0 -328.5 -129t-121.5 -335v-494z" />
<glyph unicode="&#x153;" horiz-adv-x="1691" d="M113 356v289q0 190 103 288.5t284 98.5q293 0 358 -235q45 113 139.5 174t225.5 61q172 0 269 -104.5t97 -292.5v-127h-704v-164q0 -145 91 -231t253 -86q176 0 293 129l43 -31q-119 -152 -342 -152q-289 0 -369 234q-37 -113 -127 -173.5t-223 -60.5q-190 0 -290.5 97.5 t-100.5 285.5zM174 360q0 -334 330 -333q317 0 317 348v274q0 150 -77.5 240t-245.5 90q-166 0 -245 -91t-79 -249v-279zM885 557h645v86q0 141 -78 238.5t-244 97.5q-156 0 -239.5 -105.5t-83.5 -244.5v-72z" />
<glyph unicode="&#x178;" horiz-adv-x="1142" d="M82 1460h76l415 -768l416 768h72l-459 -833v-627h-63v627zM348 1632v162h64v-162h-64zM727 1632v162h66v-162h-66z" />
<glyph unicode="&#x2c6;" horiz-adv-x="815" d="M199 1161l182 301h65l172 -301h-63l-141 252l-150 -252h-65z" />
<glyph unicode="&#x2dc;" horiz-adv-x="817" d="M121 1190q10 61 52 104t103 43q57 0 155.5 -40t146.5 -40q45 0 69.5 25t40.5 76l47 -10q-16 -70 -59 -109t-101 -39q-53 0 -153 41t-150 41q-70 0 -102 -100z" />
<glyph unicode="&#x2013;" horiz-adv-x="870" d="M0 559v49h870v-49h-870z" />
<glyph unicode="&#x2014;" horiz-adv-x="1515" d="M0 559v49h1516v-49h-1516z" />
<glyph unicode="&#x2018;" horiz-adv-x="382" d="M152 1100v178l36 192h37l-26 -192h26v-178h-73z" />
<glyph unicode="&#x2019;" horiz-adv-x="385" d="M158 1098l26 194h-26v176h73v-178l-36 -192h-37z" />
<glyph unicode="&#x201a;" horiz-adv-x="380" d="M154 0v178h73v-178l-37 -193h-36l26 193h-26z" />
<glyph unicode="&#x201c;" horiz-adv-x="618" d="M152 1100v178l36 192h37l-26 -192h26v-178h-73zM393 1100v178l37 192h37l-25 -192h25v-178h-74z" />
<glyph unicode="&#x201d;" horiz-adv-x="618" d="M154 1098l26 194h-26v176h73v-178l-37 -192h-36zM395 1098l27 194h-27v176h74v-178l-37 -192h-37z" />
<glyph unicode="&#x201e;" horiz-adv-x="618" d="M154 0v178h73v-178l-37 -193h-36l26 193h-26zM395 0v178h74v-178l-37 -193h-37l27 193h-27z" />
<glyph unicode="&#x2022;" horiz-adv-x="761" d="M215 741q0 70 49 118t119 48q68 0 117 -48t49 -118q0 -68 -49 -117t-117 -49q-70 0 -119 49t-49 117z" />
<glyph unicode="&#x2026;" horiz-adv-x="1386" d="M156 0v178h73v-178h-73zM657 0v178h72v-178h-72zM1157 0v178h74v-178h-74z" />
<glyph unicode="&#x2039;" horiz-adv-x="655" d="M129 551l360 364l41 -36l-303 -328l305 -328l-38 -37z" />
<glyph unicode="&#x203a;" horiz-adv-x="655" d="M129 879l37 36l364 -364l-360 -365l-39 37l303 328z" />
<glyph unicode="&#x20ac;" horiz-adv-x="1441" d="M100 530v48h236v282h-236v47h236v86q0 213 137 354.5t369 141.5q219 0 352 -116t133 -283v-97h-63v78q0 160 -111 259.5t-324 99.5q-203 0 -315.5 -124t-112.5 -321v-78h629v-47h-629v-282h629v-48h-629v-61q0 -203 114 -321.5t325 -118.5t317.5 99t106.5 261v43h63v-63 q0 -174 -132 -285t-355 -111q-233 0 -368.5 122t-135.5 351v84h-236z" />
<glyph unicode="&#x2122;" horiz-adv-x="1314" d="M100 1427v41h480v-41h-218v-583h-43v583h-219zM662 844v624h45l213 -352l210 352h46v-624h-39l-2 553l-201 -342h-29l-205 342v-553h-38z" />
<glyph unicode="&#xe000;" horiz-adv-x="1004" d="M0 1005h1005v-1005h-1005v1005z" />
<glyph unicode="&#xe38c;" horiz-adv-x="1050" d="M78 952v52h213v208q0 131 67.5 204t184.5 73q57 0 106 -14v-56q-41 12 -110 13q-84 0 -135.5 -51.5t-51.5 -159.5v-217h281v-52h-281v-952h-61v952h-213zM827 0v1006h62v-1006h-62zM827 1243v184h62v-184h-62z" />
<glyph unicode="&#xfb01;" horiz-adv-x="1050" d="M78 952v52h213v208q0 131 67.5 204t184.5 73q57 0 106 -14v-56q-41 12 -110 13q-84 0 -135.5 -51.5t-51.5 -159.5v-217h281v-52h-281v-952h-61v952h-213zM827 0v1006h62v-1006h-62zM827 1243v184h62v-184h-62z" />
<glyph unicode="&#xe38d;" horiz-adv-x="1241" d="M78 952v52h213v208q0 131 67.5 204t184.5 73q57 0 106 -14v-56q-41 12 -110 13q-84 0 -135.5 -51.5t-51.5 -159.5v-217h281v-52h-281v-952h-61v952h-213zM829 225v1235h64v-1247q0 -76 44 -122t128 -46q59 0 113 12v-51q-55 -14 -131 -14q-106 0 -162 62t-56 171z" />
<glyph unicode="&#xfb02;" horiz-adv-x="1241" d="M78 952v52h213v208q0 131 67.5 204t184.5 73q57 0 106 -14v-56q-41 12 -110 13q-84 0 -135.5 -51.5t-51.5 -159.5v-217h281v-52h-281v-952h-61v952h-213zM829 225v1235h64v-1247q0 -76 44 -122t128 -46q59 0 113 12v-51q-55 -14 -131 -14q-106 0 -162 62t-56 171z" />
<glyph unicode="&#xfb03;" horiz-adv-x="1718" d="M78 952v52h213v208q0 131 67.5 204t184.5 73q57 0 106 -14v-56q-41 12 -110 13q-84 0 -135.5 -51.5t-51.5 -159.5v-217h281v-52h-281v-952h-61v952h-213zM745 952v52h213v208q0 131 68 204t184 73q57 0 107 -14v-56q-41 12 -111 13q-84 0 -135 -51.5t-51 -159.5v-217h280 v-52h-280v-952h-62v952h-213zM1497 0v1006h62v-1006h-62zM1497 1243v184h62v-184h-62z" />
<glyph unicode="&#xfb04;" horiz-adv-x="1908" d="M78 952v52h213v208q0 131 67.5 204t184.5 73q57 0 106 -14v-56q-41 12 -110 13q-84 0 -135.5 -51.5t-51.5 -159.5v-217h281v-52h-281v-952h-61v952h-213zM745 952v52h213v208q0 131 68 204t184 73q57 0 107 -14v-56q-41 12 -111 13q-84 0 -135 -51.5t-51 -159.5v-217h280 v-52h-280v-952h-62v952h-213zM1499 225v1235h64v-1247q0 -76 44 -122t128 -46q59 0 112 12v-51q-55 -14 -131 -14q-106 0 -161.5 62t-55.5 171z" />
<glyph horiz-adv-x="0" />
</font>
</defs>
</svg>
